<svg width="188" height="48" viewBox="0 0 188 48" fill="none" xmlns="http://www.w3.org/2000/svg">
<path d="M38.996 16.2915C39.7214 16.5901 40.34 16.9955 40.852 17.5075C41.4067 18.0195 41.8334 18.6381 42.132 19.3635C42.4734 20.0461 42.6654 20.7715 42.708 21.5395C42.7507 22.7768 42.4307 23.9288 41.748 24.9955C41.108 26.0195 40.2334 26.7661 39.124 27.2355L39.188 36.7715C39.2307 38.4355 38.676 39.8648 37.524 41.0595C36.372 42.2115 34.964 42.8088 33.3 42.8515H33.236C31.572 42.8515 30.1427 42.2755 28.948 41.1235C27.796 39.9288 27.22 38.5208 27.22 36.8995L27.156 28.1315L17.172 28.5155L17.94 40.2915C18.0253 41.3581 17.8333 42.3821 17.364 43.3635C16.8947 44.3021 16.212 45.0701 15.316 45.6675C14.42 46.2648 13.4387 46.6061 12.372 46.6915C12.244 46.6915 12.116 46.6915 11.988 46.6915C10.9213 46.6915 9.94002 46.4355 9.04402 45.9235C8.19068 45.4541 7.48668 44.7928 6.93202 43.9395C6.37735 43.0861 6.05735 42.1261 5.97202 41.0595L5.20402 28.6435C4.56402 28.4728 3.98802 28.2168 3.47602 27.8755C2.96402 27.5341 2.51602 27.1288 2.13202 26.6595C1.74802 26.1475 1.42802 25.5928 1.17202 24.9955C0.958682 24.3981 0.830682 23.7795 0.788016 23.1395C0.745349 21.8595 1.06535 20.7075 1.74802 19.6835C2.43068 18.6168 3.32668 17.8488 4.43602 17.3795L3.86002 8.22747C3.73202 6.56347 4.22268 5.1128 5.33202 3.87547C6.44135 2.63813 7.80668 1.95547 9.42802 1.82747C10.5373 1.7848 11.5613 1.99813 12.5 2.46746C13.4387 2.9368 14.2067 3.61947 14.804 4.51546C15.4013 5.3688 15.7427 6.35013 15.828 7.45947L16.404 16.5475L27.028 16.0995L26.9 6.17947C26.9 5.53947 26.9854 4.9208 27.156 4.32347C27.3694 3.68347 27.6467 3.1288 27.988 2.65947C28.372 2.14746 28.7987 1.69946 29.268 1.31546C29.78 0.931464 30.3347 0.632797 30.932 0.419464C31.572 0.206131 32.212 0.0994644 32.852 0.0994644C34.516 0.0567983 35.924 0.632799 37.076 1.82747C38.2707 2.97947 38.8894 4.38747 38.932 6.05146L38.996 16.2915ZM57.0705 1.05947C60.5265 0.931466 63.5345 2.19013 66.0945 4.83546C67.5452 6.37147 68.7825 8.4408 69.8065 11.0435C70.8305 13.6461 71.5345 16.1848 71.9185 18.6595C72.3452 21.1341 72.6439 23.8221 72.8145 26.7235C72.9852 29.6248 73.0492 31.8435 73.0065 33.3795C73.0065 34.8728 72.9639 36.2808 72.8785 37.6035C72.7932 39.2675 72.1319 40.6541 70.8945 41.7635C69.6572 42.8301 68.2065 43.3208 66.5425 43.2355C64.8785 43.1075 63.4918 42.4248 62.3825 41.1875C61.3158 39.9501 60.8252 38.4995 60.9105 36.8355C60.9532 35.8115 60.9958 34.6381 61.0385 33.3155L55.2785 33.7635C55.3638 35.1715 55.4918 36.4728 55.6625 37.6675C55.8758 39.2888 55.4705 40.7608 54.4465 42.0835C53.4652 43.4061 52.1425 44.1741 50.4785 44.3875C50.2225 44.4301 49.9665 44.4515 49.7105 44.4515C48.2172 44.4515 46.8945 43.9608 45.7425 42.9795C44.6332 41.9555 43.9718 40.6968 43.7585 39.2035C43.5878 37.8808 43.4172 36.4515 43.2465 34.9155C43.1185 33.3368 43.0332 31.0541 42.9905 28.0675C42.9478 25.0808 43.0545 22.3075 43.3105 19.7475C43.5665 17.1875 44.1212 14.5421 44.9745 11.8115C45.8278 9.0808 46.9372 6.9048 48.3025 5.28347C50.6492 2.5528 53.5718 1.1448 57.0705 1.05947ZM57.2625 12.9635C56.2385 13.8168 55.5345 16.7395 55.1505 21.7315L60.2065 21.3475C59.4385 16.4835 58.4572 13.6888 57.2625 12.9635ZM102.791 3.17147C103.857 3.08613 104.86 3.27813 105.799 3.74747C106.78 4.2168 107.569 4.89947 108.167 5.79547C108.807 6.69147 109.148 7.6728 109.191 8.73947C109.276 9.67813 109.319 10.7661 109.319 12.0035C109.361 13.1981 109.297 15.1395 109.127 17.8275C108.956 20.4728 108.636 22.9901 108.167 25.3795C107.74 27.7261 106.972 30.2435 105.863 32.9315C104.796 35.5768 103.473 37.7528 101.895 39.4595C98.7799 42.7875 94.9612 44.4515 90.4385 44.4515C85.7452 44.4515 81.9478 42.7235 79.0465 39.2675C77.6385 37.5608 76.5078 35.4488 75.6545 32.9315C74.8438 30.4141 74.3318 28.0248 74.1185 25.7635C73.9052 23.5021 73.8412 21.0915 73.9265 18.5315C74.0118 15.9715 74.1398 14.0301 74.3105 12.7075C74.4812 11.3421 74.6518 10.1261 74.8225 9.05947C75.1212 7.39547 75.9532 6.09413 77.3185 5.15546C78.6838 4.2168 80.1772 3.8968 81.7985 4.19547C83.4198 4.49413 84.6998 5.32613 85.6385 6.69147C86.6198 8.01413 86.9612 9.48613 86.6625 11.1075C86.2785 13.3261 86.0225 15.7368 85.8945 18.3395C85.8092 20.9421 85.9585 23.5235 86.3425 26.0835C86.7265 28.6435 87.3665 30.4568 88.2625 31.5235C88.7745 32.1208 89.4998 32.4195 90.4385 32.4195C91.4625 32.4195 92.3585 32.0355 93.1265 31.2675C94.7479 29.5181 95.8999 26.4461 96.5825 22.0515C97.2652 17.6568 97.4785 13.4968 97.2225 9.57146C97.1372 7.90747 97.6279 6.4568 98.6945 5.21947C99.8039 3.98213 101.169 3.29947 102.791 3.17147ZM145.49 4.83546L153.362 39.9075C153.703 41.5288 153.426 43.0435 152.53 44.4515C151.634 45.8168 150.375 46.6915 148.754 47.0755C148.327 47.1608 147.901 47.2035 147.474 47.2035C146.578 47.2035 145.703 47.0115 144.85 46.6275C144.039 46.2435 143.335 45.6888 142.738 44.9635C142.183 44.2381 141.821 43.4275 141.65 42.5315L138.514 28.6435L136.274 35.3635C135.89 36.5581 135.186 37.5395 134.162 38.3075C133.138 39.0755 131.986 39.4595 130.706 39.4595C129.426 39.4595 128.253 39.1181 127.186 38.4355C126.162 37.7101 125.415 36.7501 124.946 35.5555L122.258 28.1315L119.25 40.4835C118.866 42.0621 117.949 43.2995 116.498 44.1955C115.09 45.0488 113.575 45.2835 111.954 44.8995C110.375 44.5155 109.159 43.6195 108.306 42.2115C107.453 40.7608 107.218 39.2461 107.602 37.6675L115.218 6.24347C115.517 4.96347 116.178 3.8968 117.202 3.04346C118.226 2.19013 119.378 1.7208 120.658 1.63547C121.554 1.5928 122.407 1.74213 123.218 2.08347C124.029 2.38213 124.733 2.83013 125.33 3.42747C125.927 4.0248 126.375 4.7288 126.674 5.53947L130.258 15.3315L133.97 4.25946C134.226 3.40613 134.653 2.65947 135.25 2.01947C135.847 1.37947 136.551 0.8888 137.362 0.547466C138.173 0.206132 139.026 0.0567983 139.922 0.0994644C141.287 0.184799 142.482 0.675466 143.506 1.57146C144.53 2.4248 145.191 3.5128 145.49 4.83546ZM181.532 30.6275C182.598 30.5421 183.601 30.7555 184.54 31.2675C185.521 31.7368 186.289 32.4195 186.844 33.3155C187.441 34.2115 187.761 35.2141 187.804 36.3235C187.932 37.9448 187.441 39.3741 186.332 40.6115C185.222 41.8488 183.836 42.5101 182.172 42.5955C176.284 42.9368 171.505 43.1075 167.836 43.1075C162.886 43.1075 159.686 42.7448 158.236 42.0195C156.7 41.2088 155.505 39.5235 154.652 36.9635C153.841 34.4035 153.372 31.5875 153.244 28.5155C153.158 25.4008 153.201 22.3075 153.372 19.2355C153.542 16.1208 153.756 13.5395 154.012 11.4915C154.31 9.44347 154.524 8.2488 154.652 7.90747C154.908 7.18213 155.164 6.60613 155.42 6.17947C155.676 5.7528 156.337 5.19813 157.404 4.51546C158.47 3.79013 159.836 3.2568 161.5 2.91547C163.206 2.57413 165.702 2.31813 168.988 2.14746C172.273 1.93413 176.156 1.89147 180.636 2.01947C182.3 2.1048 183.686 2.76613 184.796 4.00347C185.948 5.19813 186.481 6.62747 186.396 8.29147C186.353 9.9128 185.713 11.2995 184.476 12.4515C183.281 13.5608 181.852 14.0941 180.188 14.0515C174.214 13.7955 169.329 13.9235 165.532 14.4355C165.532 14.9048 165.489 15.5875 165.404 16.4835L176.668 16.3555H176.732C178.396 16.3555 179.804 16.9528 180.956 18.1475C182.15 19.2995 182.748 20.6861 182.748 22.3075C182.748 23.4168 182.492 24.4408 181.98 25.3795C181.468 26.2755 180.742 27.0008 179.804 27.5555C178.908 28.1101 177.905 28.3875 176.796 28.3875L165.404 28.5155C165.404 29.4968 165.446 30.3501 165.532 31.0755C169.926 31.1181 175.26 30.9688 181.532 30.6275ZM165.852 12.1955H165.788H165.852Z" fill="#E8E4F5"/>
</svg>
