<svg width="115" height="37" viewBox="0 0 115 37" fill="none" xmlns="http://www.w3.org/2000/svg">
<path d="M0.683594 18.8945C0.683594 8.95341 8.74247 0.894531 18.6836 0.894531C28.6247 0.894531 36.6836 8.95341 36.6836 18.8945C36.6836 28.8357 28.6247 36.8945 18.6836 36.8945C8.74247 36.8945 0.683594 28.8357 0.683594 18.8945Z" fill="white"/>
<path d="M78.2529 18.8945C78.2529 8.95341 86.3118 0.894531 96.2529 0.894531C106.194 0.894531 114.253 8.95341 114.253 18.8945C114.253 28.8357 106.194 36.8945 96.2529 36.8945C86.3118 36.8945 78.2529 28.8357 78.2529 18.8945Z" fill="white"/>
<path d="M54.8298 3.36227C55.9642 1.26601 58.9722 1.26601 60.1066 3.36226L75.8567 32.4667C76.9384 34.4656 75.491 36.8945 73.2182 36.8945H41.7182C39.4454 36.8945 37.998 34.4656 39.0797 32.4667L54.8298 3.36227Z" fill="white"/>
</svg>
